<svg width="18" height="18" viewBox="0 0 18 18" xmlns="http://www.w3.org/2000/svg">
  <g stroke="currentColor" stroke-width="1.5" fill="none" fill-rule="evenodd" stroke-linecap="round" stroke-linejoin="round">
    <path d="M.5625 2.8125c0 1.24264 2.014719 2.25 4.5 2.25s4.5-1.00736 4.5-2.25-2.014719-2.25-4.5-2.25-4.5 1.00736-4.5 2.25zM9.5625 5.0625c0 1.24275-2.0145 2.25-4.5 2.25s-4.5-1.00725-4.5-2.25M9.5625 7.3125v-4.5"/>
    <path d="M.5625 2.8125v11.25c0 1.24275 2.0145 2.25001 4.5 2.25001a8.46378 8.46378 0 001.6875-.16726"/>
    <path d="M.5625 11.8125c0 1.24275 2.0145 2.25001 4.5 2.25001a8.46378 8.46378 0 001.6875-.16726M.5625 9.5625c0 1.24275 2.0145 2.25001 4.5 2.25001a8.46378 8.46378 0 001.6875-.16726M.5625 7.3125c0 1.24275 2.0145 2.25001 4.5 2.25001A8.463777 8.463777 0 006.75 9.39525M8.4375 10.6875c0 1.24264 2.014719 2.25 4.5 2.25s4.5-1.00736 4.5-2.25-2.014719-2.25-4.5-2.25-4.5 1.00736-4.5 2.25z"/>
    <path d="M8.4375 10.6875v4.5c0 1.24275 2.0145 2.25 4.5 2.25s4.5-1.00725 4.5-2.25v-4.5"/>
    <path d="M17.4375 12.9375c0 1.24275-2.0145 2.25-4.5 2.25s-4.5-1.00725-4.5-2.25"/>
  </g>
</svg>
