<svg width="18" height="13" viewBox="0 0 18 13" xmlns="http://www.w3.org/2000/svg">
  <g stroke="currentColor" stroke-width="1.5" fill="none" fill-rule="evenodd" stroke-linecap="round" stroke-linejoin="round">
    <path d="M4.21875 4.0625c0 .677316.375242 1.303182.984375 1.64184.609133.338658 1.359617.338658 1.96875 0 .609133-.338658.984375-.964524.984375-1.64184 0-.677316-.375242-1.303182-.984375-1.64184-.609133-.338658-1.359617-.338658-1.96875 0-.609133.338658-.984375.964524-.984375 1.64184h0zM2.8125 9.75c0-1.794925 1.511039-3.25 3.375-3.25s3.375 1.455075 3.375 3.25h-6.75zM10.6875 4.333333h3.375M10.6875 6.5h4.5"/>
    <path d="M16.3125 0H1.6875C1.06618 0 .5625.485025.5625 1.083333v10.833334C.5625 12.514975 1.06618 13 1.6875 13h2.25c0-.598308.50368-1.083333 1.125-1.083333S6.1875 12.40169 6.1875 13h5.625c0-.598308.50368-1.083333 1.125-1.083333s1.125.485024 1.125 1.083333h2.25c.62132 0 1.125-.485025 1.125-1.083333V1.083333C17.4375.485025 16.93382 0 16.3125 0z"/>
  </g>
</svg>
