<svg width="18" height="14" viewBox="0 0 18 14" xmlns="http://www.w3.org/2000/svg">
  <g stroke="currentColor" stroke-width="1.5" fill="none" fill-rule="evenodd" stroke-linecap="round" stroke-linejoin="round">
    <path d="M2.53125 3.791667C2.53125 5.56358 3.91637 7 5.625 7s3.09375-1.43642 3.09375-3.208333c0-1.771914-1.38512-3.208334-3.09375-3.208334s-3.09375 1.43642-3.09375 3.208334h0zM.5625 13.416667c0-2.899495 2.266558-5.25 5.0625-5.25s5.0625 2.350505 5.0625 5.25M10.764 5.541667c0 1.449747 1.13328 2.625 2.53125 2.625s2.53125-1.175253 2.53125-2.625c0-1.449748-1.13328-2.625-2.53125-2.625s-2.53125 1.175252-2.53125 2.625zM11.85975 9.386222c1.271175-.485856 2.691086-.296748 3.802626.506443 1.11154.803191 1.774376 2.119063 1.775124 3.524002"/>
  </g>
</svg>
