<svg width="18" height="18" viewBox="0 0 18 18" xmlns="http://www.w3.org/2000/svg">
  <g stroke="currentColor" fill="none" fill-rule="evenodd">
    <path d="M3.375 9S5.625 5.625 9 5.625 14.625 9 14.625 9 12.375 12.375 9 12.375 3.375 9 3.375 9z" stroke-width="1.5" stroke-linecap="round" stroke-linejoin="round"/>
    <circle stroke-width="1.2" cx="9" cy="9" r="1.40625"/>
    <path d="M.5625 3.375V1.6875c0-.62132.50368-1.125 1.125-1.125H3.375M17.4375 3.375V1.6875c0-.62132-.50368-1.125-1.125-1.125H14.625M.5625 14.625v1.6875c0 .62132.50368 1.125 1.125 1.125H3.375M17.4375 14.625v1.6875c0 .62132-.50368 1.125-1.125 1.125H14.625" stroke-width="1.5" stroke-linecap="round" stroke-linejoin="round"/>
  </g>
</svg>
