<svg width="18" height="18" viewBox="0 0 18 18" xmlns="http://www.w3.org/2000/svg">
  <g fill="none" fill-rule="evenodd">
    <path d="M5.5 9.30987l3.498704 2.175802L12.5 9.30987 8.998704 14.5 5.5 9.30987zM9 2.5v.002l3.498704 6.109212L9 10.787v.001378L8.999 10.787l-.000296.001378L5.5 8.611212 5.501 8.61l3.498-6.108v-.001L9 2.5z" fill="#55CD6F"/>
    <path d="M17.4375 7.4535c.0003 4.940927-3.56568 9.160512-8.4375 9.984-4.87182-.823488-8.4378-5.043073-8.4375-9.984v-5.766c0-.62132.50368-1.125 1.125-1.125h14.625c.62132 0 1.125.50368 1.125 1.125v5.766z" stroke="#55CD6F" stroke-width="1.5" stroke-linecap="round" stroke-linejoin="round"/>
  </g>
</svg>
