<svg width="18" height="16" viewBox="0 0 18 16" xmlns="http://www.w3.org/2000/svg">
  <g stroke="currentColor" stroke-width="1.5" fill="none" fill-rule="evenodd" stroke-linecap="round" stroke-linejoin="round">
    <path d="M6.159 10.72775l-2.784.3975.3975-2.784 7.1595-7.1595c.426307-.426307 1.047663-.5928 1.63001-.43676.582346.15604 1.03721.610904 1.19325 1.19325.15604.582347-.010453 1.203703-.43676 1.63001l-7.1595 7.1595z"/>
    <path d="M3.9375 5.1875h-2.25c-.62132 0-1.125.50368-1.125 1.125v7.875c0 .62132.50368 1.125 1.125 1.125h14.625c.62132 0 1.125-.50368 1.125-1.125v-7.875c0-.62132-.50368-1.125-1.125-1.125h-1.125M15.1875 12.5h-5.625M15.1875 9.6875h-3.375"/>
  </g>
</svg>
