<svg width="18" height="18" viewBox="0 0 18 18" xmlns="http://www.w3.org/2000/svg">
  <g stroke="currentColor" stroke-width="1.5" fill="none" fill-rule="evenodd" stroke-linecap="round" stroke-linejoin="round">
    <path d="M16.3125 13.875V15c0 1.24264-1.00736 2.25-2.25 2.25h-11.25c-1.24264 0-2.25-1.00736-2.25-2.25V7.125c0-1.24264 1.00736-2.25 2.25-2.25h11.25c1.24264 0 2.25 1.00736 2.25 2.25V8.25M14.0625 4.875l-1.74675-3.4935c-.13341-.266998-.367453-.470037-.650609-.564423-.283156-.094385-.592214-.07238-.859141.061173L2.8125 4.875"/>
    <path d="M16.3125 13.875c.62132 0 1.125-.50368 1.125-1.125V9.375c0-.62132-.50368-1.125-1.125-1.125H13.5c-1.5533 0-2.8125 1.2592-2.8125 2.8125S11.9467 13.875 13.5 13.875h2.8125z"/>
    <path d="M13.5 10.78125c.15533 0 .28125.12592.28125.28125s-.12592.28125-.28125.28125-.28125-.12592-.28125-.28125.12592-.28125.28125-.28125"/>
  </g>
</svg>
